<?xml version="1.0" encoding="UTF-8"?>
<svg id="Layer_1" data-name="Layer 1" xmlns="http://www.w3.org/2000/svg" viewBox="0 0 210.57 181.7">
  <defs>
    <style>
      .cls-1 {
        fill: #fff;
      }

      .cls-2 {
        fill: #a87d50;
      }

      .cls-3 {
        fill: #231f20;
      }

      .cls-4 {
        fill: #8a5e3c;
      }
    </style>
  </defs>
  <path class="cls-3" d="M15.07,96.82c4.9,4.7,8.37,8.24,10.42,10.61,1.06,1.18,1.58,2.18,1.58,3s-.64,1.78-1.92,2.88c-1.28,1.1-2.33,1.66-3.14,1.66s-1.8-.67-2.95-2.02l-10.56-12.05v9.36c0,.77-.02,1.33-.07,1.68-.05,.35-.2,.77-.46,1.25-.45,.86-1.7,1.3-3.74,1.3-2.24,0-3.55-.61-3.94-1.82-.19-.51-.29-1.33-.29-2.45v-26.69c0-.74,.02-1.29,.07-1.66,.05-.37,.2-.79,.46-1.27,.45-.86,1.7-1.3,3.74-1.3,2.24,0,3.57,.59,3.98,1.78,.16,.54,.24,1.38,.24,2.5v9.17c4.35-4.9,7.87-8.91,10.56-12.05,1.12-1.31,2.1-1.97,2.93-1.97s1.89,.55,3.17,1.66c1.28,1.1,1.92,2.06,1.92,2.88s-.48,1.78-1.44,2.9c-1.86,2.14-4.74,5.09-8.64,8.83l-1.92,1.82Z"/>
  <path class="cls-3" d="M82.48,86.4c.83,1.7,1.25,3.58,1.25,5.66s-.42,3.96-1.25,5.64c-.83,1.68-1.9,3.02-3.22,4.01-2.66,2.05-5.41,3.07-8.26,3.07h-6v5.42c0,.74-.02,1.29-.07,1.66-.05,.37-.2,.79-.46,1.27-.45,.86-1.7,1.3-3.74,1.3-2.24,0-3.55-.59-3.94-1.78-.19-.54-.29-1.38-.29-2.5v-26.64c0-.74,.02-1.29,.07-1.66,.05-.37,.2-.79,.46-1.27,.45-.86,1.7-1.3,3.74-1.3h10.27c2.82,0,5.55,1.02,8.21,3.07,1.31,.99,2.38,2.34,3.22,4.03Zm-8.59,8.83c.93-.7,1.39-1.76,1.39-3.17s-.46-2.47-1.39-3.19c-.93-.72-1.89-1.08-2.88-1.08h-6v8.5h6.05c.96,0,1.9-.35,2.83-1.06Z"/>
  <path class="cls-3" d="M111.82,86.4c.83,1.7,1.25,3.58,1.25,5.66s-.42,3.96-1.25,5.64c-.83,1.68-1.9,3.02-3.22,4.01-2.66,2.05-5.41,3.07-8.26,3.07h-6v5.42c0,.74-.02,1.29-.07,1.66-.05,.37-.2,.79-.46,1.27-.45,.86-1.7,1.3-3.74,1.3-2.24,0-3.55-.59-3.94-1.78-.19-.54-.29-1.38-.29-2.5v-26.64c0-.74,.02-1.29,.07-1.66,.05-.37,.2-.79,.46-1.27,.45-.86,1.7-1.3,3.74-1.3h10.27c2.82,0,5.55,1.02,8.21,3.07,1.31,.99,2.38,2.34,3.22,4.03Zm-8.59,8.83c.93-.7,1.39-1.76,1.39-3.17s-.46-2.47-1.39-3.19c-.93-.72-1.89-1.08-2.88-1.08h-6v8.5h6.05c.96,0,1.9-.35,2.83-1.06Z"/>
  <g>
    <path class="cls-3" d="M36.39,172.85c-.4,0-.6-.12-.6-.34,0-.17,.03-.29,.09-.34,10.26-19.72,19.87-33.8,28.81-42.23,3.84-3.67,8.26-5.5,13.24-5.5,2.18,0,4.07,.43,5.68,1.29,.29,.12,.43,.29,.43,.52,0,.63-.98,1.49-2.92,2.58-1.61-1.38-3.41-2.06-5.42-2.06-3.44,0-7.08,1.83-10.92,5.5-4.3,3.96-10.84,13.7-19.61,29.24-.06,.34,.03,.52,.26,.52,.34,0,2.92-1.89,7.74-5.68,.23-.11,.46-.29,.69-.52,.11-.11,.24-.23,.39-.34,.14-.11,.33-.23,.56-.34,0-2.92,.97-4.39,2.92-4.39,1.2,0,1.81,.43,1.81,1.29,1.49-.92,3.24-1.91,5.25-2.97,2.01-1.06,4.33-2.22,6.97-3.48,.29,.75,.43,1.38,.43,1.89,0,1.78-1.18,3.41-3.53,4.9-.57,.4-1.35,.86-2.32,1.38-.98,.52-2.24,1.03-3.78,1.55l-3.78,1.29c-.34,2.29-.52,4.44-.52,6.45,0,.86,.03,1.69,.09,2.49,.06,.8,.17,1.55,.34,2.24,.23,1.43,.8,2.15,1.72,2.15,.34,0,.57-.03,.69-.09,.86-.29,1.76-.66,2.71-1.12,.95-.46,1.91-.95,2.88-1.46l4.9-2.58c0,.34-.14,1-.43,1.98-.46,.23-.9,.46-1.33,.69-.43,.23-.87,.49-1.33,.77-.4,.23-.83,.47-1.29,.73-.46,.26-.92,.53-1.38,.82-2.35,1.32-4.47,2.18-6.36,2.58-.52,.17-1.15,.04-1.89-.39-.75-.43-1.42-1.03-2.02-1.81-.6-.77-.99-1.62-1.16-2.54-.06-.63-.1-1.29-.13-1.98-.03-.69-.04-1.43-.04-2.24s.01-1.66,.04-2.58c.03-.92,.07-1.86,.13-2.84-5.68,4.19-9.98,8.23-12.9,12.13-.52,.63-1.32,1.26-2.41,1.89-1.09,.63-1.98,.95-2.67,.95Z"/>
    <path class="cls-3" d="M72.34,171.99c-1.32,0-1.98-.77-1.98-2.32,0-1.09,.4-2.49,1.2-4.21,2.06-3.84,5.47-7.8,10.23-11.87,5.79-4.82,10.49-7.22,14.1-7.22,2.24,0,3.78,.43,4.64,1.29,1.32-.97,2.72-1.46,4.21-1.46,.29,0,.43,.09,.43,.26,0,.12-.06,.23-.17,.34-.8,.92-1.71,2.15-2.71,3.7-1,1.55-2.08,3.47-3.23,5.76-2.7,5.28-4.04,9.15-4.04,11.61,0,.57,.03,.92,.09,1.03v.09c0,.34-.17,.76-.52,1.25-.34,.49-.69,.73-1.03,.73-.69,0-1.03-1.15-1.03-3.44,0-3.9,.89-7.62,2.67-11.18l-7.31,6.11c-2.75,2.29-5.23,4.17-7.44,5.63-2.21,1.46-4.11,2.57-5.72,3.31-.8,.4-1.61,.6-2.41,.6Zm3.87-3.96c.34,0,.72-.11,1.12-.34,.74-.29,2.03-1.03,3.87-2.24,1.83-1.2,3.81-2.69,5.93-4.47,2.64-2.18,4.83-4.17,6.58-5.98,1.75-1.81,3.02-3.17,3.83-4.08-.34-.97-1.03-1.46-2.06-1.46-2.01,0-5.22,1.72-9.63,5.16-4.99,4.01-8.26,7.31-9.8,9.89-.52,.92-.77,1.78-.77,2.58,0,.63,.31,.95,.95,.95Z"/>
    <path class="cls-3" d="M98.82,181.7c-.46,0-.69-.32-.69-.95,0-.23-.11-.69-.34-1.38-.23-.69-.34-1.35-.34-1.98,0-.86,.17-1.66,.52-2.41,1.09-2.7,2.81-6.05,5.16-10.06,2.35-4.01,5.36-8.71,9.03-14.1-.57,0-1.23-.37-1.98-1.12-.8-.8-1.2-1.4-1.2-1.81,0-.23,.17-.34,.52-.34l2.92-.26c.46-.06,.87-.09,1.25-.09s.76-.03,1.16-.09c2.12-2.98,4.21-5.59,6.28-7.83s4.1-4.16,6.11-5.76c4.64-3.61,9.23-5.42,13.76-5.42,1.72,0,3.44,.4,5.16,1.2,.29,.12,.43,.29,.43,.52,0,.63-.98,1.49-2.92,2.58-1.61-1.43-3.35-2.15-5.25-2.15-2.29,0-5.19,1.32-8.69,3.96-3.56,2.64-7.43,6.91-11.61,12.81h3.27c1.49,0,2.98,.01,4.47,.04,1.49,.03,2.87,.07,4.13,.13h.77c.23,0,.46-.03,.69-.09,2.12-2.98,4.21-5.59,6.28-7.83s4.1-4.16,6.11-5.76c4.64-3.61,9.23-5.42,13.76-5.42,1.72,0,3.44,.4,5.16,1.2,.29,.12,.43,.29,.43,.52,0,.63-.98,1.49-2.92,2.58-1.61-1.43-3.35-2.15-5.25-2.15-2.29,0-5.19,1.32-8.69,3.96-3.56,2.64-7.43,6.91-11.61,12.81h2.67c4.3,0,7.51,.17,9.63,.52,.8,.12,1.2,.37,1.2,.77,0,.52-.55,.77-1.63,.77-1.72,0-3.5,.03-5.33,.09-1.84,.06-3.73,.14-5.68,.26-1.78,.12-3.13,.92-4.04,2.41-2.87,4.3-5.38,8.27-7.52,11.91-2.15,3.64-3.97,6.98-5.46,10.02-.98,2.12-1.46,4.13-1.46,6.02,0,.46-.19,.89-.56,1.29-.37,.4-.73,.6-1.07,.6-.46,0-.69-.32-.69-.95,0-.23-.12-.69-.34-1.38-.23-.69-.34-1.35-.34-1.98,0-.86,.17-1.66,.52-2.41,1.09-2.7,2.81-6.05,5.16-10.06,2.35-4.01,5.36-8.71,9.03-14.1-.57,0-1.23-.37-1.98-1.12l-.52-.6c-1.15,.06-2.34,.1-3.57,.13-1.23,.03-2.48,.1-3.74,.21-1.78,.12-3.13,.92-4.04,2.41-2.87,4.3-5.38,8.27-7.52,11.91-2.15,3.64-3.97,6.98-5.46,10.02-.98,2.12-1.46,4.13-1.46,6.02,0,.46-.19,.89-.56,1.29-.37,.4-.73,.6-1.07,.6Z"/>
    <path class="cls-3" d="M144.49,172.5c-1.78,0-3.31-.46-4.6-1.38s-1.94-2.01-1.94-3.27c0-.46,.14-1.17,.43-2.15,1.66-4.76,6.02-10.32,13.07-16.68l4.3-1.55c2.75-.92,4.24-1.35,4.47-1.29,2.12,.34,3.18,1.23,3.18,2.67,0,2.75-2.21,5.48-6.62,8.17-3.96,2.41-7.43,3.61-10.41,3.61-.29,0-.57-.01-.86-.04-.29-.03-.57-.07-.86-.13-.57,.8-1.09,1.55-1.55,2.24-.46,.69-.83,1.35-1.12,1.98-.46,1.09-.69,2.01-.69,2.75,0,1.89,.77,2.84,2.32,2.84s4.04-.69,7.48-2.06c3.32-1.26,5.59-2.38,6.79-3.35,.46-.29,.86-.43,1.2-.43s.52,.14,.52,.43c-.06,.34-.34,.72-.86,1.12-.86,.63-1.85,1.28-2.97,1.93-1.12,.66-2.36,1.36-3.74,2.11-3.5,1.66-6.02,2.49-7.57,2.49Zm4.56-13.76c2.06,0,4.24-1.12,6.54-3.35,2.18-2.18,3.27-3.98,3.27-5.42,0-.8-.37-1.23-1.12-1.29-2.47-.4-6.16,2.67-11.09,9.2,.57,.57,1.38,.86,2.41,.86Z"/>
  </g>
  <g>
    <path class="cls-4" d="M41.29,100.1c-1.89,4.6-1.46,10.38-.49,15.19,7.29-.59,13.06-8.74,13.06-18.7s-5.64-17.91-12.79-18.68c1.3,5.58,2.96,15.54,.23,22.19Z"/>
    <path class="cls-2" d="M38.39,100.1c2.68-6.51,1.14-16.21-.15-21.85-6.3,1.79-11.03,9.31-11.03,18.34s4.51,16.19,10.59,18.2c-.9-4.71-1.24-10.25,.59-14.69Z"/>
  </g>
  <path class="cls-2" d="M134.72,55.59s.58-.45,1.48-1.34c.45-.44,.96-1,1.52-1.66,.54-.67,1.13-1.44,1.66-2.33,.52-.89,1.03-1.89,1.41-2.98,.36-1.1,.66-2.28,.74-3.53l.02-.23v-.09s.01-.13,.01-.13c0-.17,.02-.36,0-.49,0-.28-.02-.6-.05-.9-.06-.61-.17-1.21-.37-1.79-.38-1.17-1.05-2.27-1.89-3.34-.84-1.06-1.82-2.1-2.78-3.18-.95-1.09-1.89-2.25-2.63-3.51-.76-1.25-1.24-2.64-1.49-3.96-.26-1.33-.21-2.6-.08-3.73,.13-1.14,.41-2.13,.68-2.99,.27-.86,.58-1.58,.85-2.17,.26-.59,.5-1.03,.66-1.33,.17-.3,.25-.46,.25-.46,0,0-.04,.18-.12,.51-.09,.33-.2,.82-.34,1.43-.14,.61-.27,1.37-.4,2.23-.12,.86-.19,1.83-.19,2.86,.01,1.04,.16,2.14,.47,3.23,.31,1.1,.85,2.17,1.55,3.21,.7,1.04,1.59,2.03,2.57,3.03,.96,1.02,2.01,2.05,2.97,3.26,.97,1.19,1.82,2.61,2.29,4.16,.24,.77,.37,1.58,.42,2.36,.03,.4,.02,.77,0,1.18,0,.21-.02,.37-.04,.54v.13s-.03,.16-.03,.16l-.04,.28c-.21,1.46-.62,2.83-1.2,4.03-.58,1.2-1.25,2.26-2,3.13-1.46,1.76-3,2.86-4.11,3.51-1.11,.67-1.81,.9-1.81,.9Z"/>
  <path class="cls-2" d="M173.21,55.77s.57-.41,1.47-1.2c.45-.4,.97-.91,1.53-1.51,.55-.61,1.16-1.31,1.7-2.13,.54-.83,1.08-1.74,1.46-2.77,.19-.51,.34-1.05,.48-1.6,.13-.55,.2-1.13,.25-1.71,.06-1.15-.09-2.29-.54-3.39-.43-1.1-1.15-2.15-1.97-3.19-.82-1.03-1.75-2.04-2.65-3.1-.88-1.07-1.75-2.18-2.45-3.37-.71-1.19-1.2-2.48-1.47-3.74-.28-1.26-.27-2.48-.16-3.57,.11-1.09,.38-2.05,.65-2.87,.27-.83,.58-1.51,.85-2.06,.26-.55,.51-.97,.67-1.25,.17-.28,.26-.43,.26-.43,0,0-.05,.17-.14,.48-.1,.31-.22,.78-.37,1.36-.15,.58-.29,1.3-.42,2.11-.13,.81-.2,1.74-.18,2.72,.01,.99,.2,2.03,.51,3.07,.32,1.05,.87,2.07,1.54,3.08,1.34,2.02,3.38,3.83,5.21,6.07,.91,1.11,1.77,2.39,2.32,3.83,.55,1.44,.73,3.03,.54,4.46-.19,1.41-.58,2.74-1.19,3.88-.59,1.14-1.29,2.13-2.04,2.92-1.49,1.6-3.02,2.57-4.11,3.14-1.09,.58-1.77,.77-1.77,.77Z"/>
  <path class="cls-2" d="M151.77,39.07s.54-.45,1.41-1.29c.85-.85,2.03-2.09,3.17-3.73,.55-.83,1.12-1.73,1.58-2.75,.46-1.01,.83-2.11,1.05-3.27l.08-.44,.05-.43,.05-.49v-.4c.03-.54-.03-1.15-.12-1.72-.21-1.16-.67-2.31-1.27-3.47-1.21-2.29-2.91-4.61-3.9-7.23-.5-1.3-.77-2.66-.86-3.94-.09-1.28,.06-2.49,.31-3.55,.1-.54,.28-1.03,.42-1.5,.19-.46,.34-.89,.52-1.29,.18-.39,.35-.76,.52-1.09,.18-.32,.35-.62,.51-.89,.29-.54,.6-.92,.78-1.2,.19-.27,.29-.41,.29-.41,0,0-.05,.17-.16,.48-.1,.31-.27,.75-.44,1.33-.09,.29-.18,.61-.29,.95-.09,.35-.18,.72-.28,1.13-.09,.4-.16,.84-.25,1.28-.04,.46-.14,.92-.16,1.42-.09,.98-.02,2.04,.15,3.12,.18,1.08,.56,2.17,1.06,3.26,.52,1.09,1.18,2.18,1.91,3.3,.72,1.12,1.51,2.3,2.2,3.59,.7,1.29,1.26,2.75,1.51,4.27,.1,.77,.16,1.51,.09,2.31l-.05,.59-.08,.49-.1,.54-.13,.52c-.36,1.37-.92,2.62-1.59,3.7-.66,1.09-1.4,2.02-2.16,2.79-.76,.78-1.5,1.42-2.21,1.93-.69,.52-1.33,.92-1.88,1.22-1.07,.61-1.74,.84-1.74,.84Z"/>
  <g>
    <path class="cls-1" d="M204.85,81.87c-.43-4.72-1.95-7.9-4.53-9.45-1.86-1.12-4.09-1.33-6.13-1.19,0,.07,0,.15,0,.23,0,9.18-2.08,17.76-5.7,25.12,12.7-1.61,17.46-2.57,16.36-14.71Z"/>
    <path class="cls-4" d="M184.97,102.65c1.05-.14,2.07-.27,3.06-.39,13.4-1.69,23.99-3.03,22.37-20.89-.6-6.61-3.03-11.23-7.24-13.74-2.97-1.77-6.31-2.13-9.24-1.94-.17-1.71-.4-3.39-.71-5.04H113.59c-.65,3.48-.99,7.1-.99,10.82,0,21.11,11.01,39.11,26.48,46.11h-50.46c-1.73,0-3.13,1.4-3.13,3.13s1.4,3.13,3.13,3.13h108c1.73,0,3.13-1.4,3.13-3.13s-1.4-3.13-3.13-3.13h-28.89c6.79-3.08,12.72-8.27,17.24-14.92Zm9.23-31.19c0-.07,0-.15,0-.23,2.03-.15,4.27,.07,6.13,1.19,2.58,1.54,4.1,4.72,4.53,9.45,1.1,12.14-3.65,13.1-16.36,14.71,3.62-7.36,5.7-15.94,5.7-25.12Z"/>
  </g>
</svg>